# xmcd
#
# Track frame offsets: 
#        150
#        23115
#        41427
#        56992
#        87175
#        106067
#        132400
#        146888
#        164628
#        177625
#        191474
#        215066
#        223772
#        236922
#        258161
#
# Disc length: 3658 seconds
#
# Revision: 0
# Processed by: cddbd v1.5.2PL0 Copyright (c) Steve Scherf et al.
# Submitted via: ExactAudioCopy v0.95b3
#
DISCID=e90e480f
DTITLE=Robin Trower  - Eagle Not The Dove  FLAC
DYEAR=1900
DGENRE=
TTITLE0=The Fool And Me
TTITLE1=Twice Removed From Yesterday
TTITLE2=Lady Love
TTITLE3=Daydream
TTITLE4=Eagle Not The Dove
TTITLE5=I Can't Wait Much Longer
TTITLE6=Man Of The World
TTITLE7=Sinners Song
TTITLE8=A Little Bit Of Sympathy
TTITLE9=Into The Flood
TTITLE10=Whiter Shade Of Pale
TTITLE11=Poison Ivy
TTITLE12=Everyday I Have The Blues
TTITLE13=Shine On Brightly
TTITLE14=Memorial Drive
EXTD=
EXTT0=
EXTT1=
EXTT2=
EXTT3=
EXTT4=
EXTT5=
EXTT6=
EXTT7=
EXTT8=
EXTT9=
EXTT10=
EXTT11=
EXTT12=
EXTT13=
EXTT14=
PLAYORDER=
